<?xml version="1.0" encoding="UTF-8"?>
<svg version="1.1" viewBox="0 0 2040 2040" width="1280" height="1280" xmlns="http://www.w3.org/2000/svg">
<path transform="translate(0)" d="m0 0h2040v2040h-2040z" fill="#FEFEFE"/>
<path transform="translate(980,559)" d="m0 0h30l100 6 14 1 1 3-1 11-1 1h-16l-114-6h-7l-9 3-4 2-4 8-4 19h85l41 1v42h18l1 4-1 11-17 1-1 23h18l1 1-1 14-6 1h-11v30l22 9 18 10 13 10 12 11 11 14 9 16 5 13 3 13 1 19v61l-1 318-3 15-5 13-7 13-9 12-17 17-13 9-15 9-23 9-20 5-14 2-24 1h-179l-1-1v-725l94-2 3-19 4-11 6-8 9-6z" fill="#F06521"/>
<path transform="translate(980,559)" d="m0 0h30l100 6 14 1 1 3-1 11-1 1h-16l-114-6h-7l-9 3-4 2-4 8-4 19h85l41 1v42h18l1 4-1 11-17 1-1 23h18l1 1-1 14-6 1h-11v30l22 9 18 10 13 10 12 11 11 14 9 16 5 13 3 13 1 19v61l-1 318-3 15-5 13-7 13-9 12-17 17-13 9-15 9-23 9-20 5-14 2-24 1h-179l-1-1v-725l94-2 3-19 4-11 6-8 9-6zm-109 185v574l1 1h159l23-1 20-3 21-6 16-7 14-8 10-8 14-14 9-13 6-12 5-15 1-7v-385l-2-15-4-11-8-15-9-11-7-8-10-8-10-7-17-9-20-7-16-4-8-1z" fill="#1C191C"/>
<path transform="translate(1099,1385)" d="m0 0 4 1 3 9v17l-4 13-3 5v3l18 3 15 6 10 8 6 7 5 11 2 9v13l-3 17-4 12-9 15-9 11-10 9-14 8-16 6-19 4h-17l-14-7-10-8-7-6-9-11-7-11-3-9-3-28v-12l1-10-16 3-10 4h-2l3-15 6-12 5-6 9-6 9-3 18-2-2-4-11-6-9-2-13-2 2-4 9-10 14-8 7-2h26l13 5 11 7 11 11v-12l-4-11v-4l15-5z" fill="#F06521"/>
<path transform="translate(1214,1395)" d="m0 0h86l8 3 7 8 2 8-1 9-6 8-7 4-4 1-82 1v7l15 7 32 15 25 11 8 5 8 7 8 13 3 7 1 16-1 9-5 12-7 9-8 7-12 6-9 2-21 1h-33l-30-1-7-2-5-4-4-7-1-9 3-9 7-7 8-2 79-1 3-1 1-3v-7l-4-4-29-13-41-18-14-9-7-10-4-9-2-11 1-13 3-10 6-9 8-8 9-5 7-3z" fill="#F06521"/>
<path transform="translate(1344,1395)" d="m0 0h12l6 3 7 8 2 4v54h2l2-4 7-8 18-18h2v-2l8-7 23-23 8-6 3-1h10l7 4 5 5 3 6 1 7-2 9-11 12-12 11-16 15-8 7 1 5 9 10 9 11 10 11 9 11 10 11 7 10 2 5v11l-5 8-5 4-7 2-9-1-8-4-8-8-8-10-9-10-9-11-10-11-9-11-12-14-4-5-3-5-1 73-3 8-8 7-3 1h-14l-6-3-5-6-2-7v-142l2-7 9-8z" fill="#080508"/>
<path transform="translate(871,1395)" d="m0 0h10l7 4 5 6 3 7 1 117 76 1 8 4 4 5 3 7v7l-4 9-4 5-5 2h-106l-7-3-6-8-1-6v-140l3-9 7-6z" fill="#F06521"/>
<path transform="translate(1099,1385)" d="m0 0 4 1 3 9v17l-4 13-3 5v3l18 3 15 6 10 8 6 7 5 11 2 9v13l-3 17-4 12-9 15-9 11-10 9-14 8-16 6-19 4h-17l-14-7-10-8-7-6-9-11-7-11-3-9-3-28v-12l1-10-16 3-10 4h-2l3-15 6-12 5-6 9-6 9-3 18-2-2-4-11-6-9-2-13-2 2-4 9-10 14-8 7-2h26l13 5 11 7 11 11v-12l-4-11v-4l15-5zm-67 53-11 16-6 12-5 17v15l6 18 9 16 8 8h1l-1-12-1-16 1-8 2 1 3 19 4 12 7 11 8 7 12 3h16l14-3 12-5 9-7 5-4 8-10 7-12 4-12 1-5v-19l-4-13-6-9-8-7-14-6-9-2h-19l-12 3-9 5-12 12-6 9-2-1 4-10 12-14 1-2-3-1-11-1-10-3z" fill="#060406"/>
<path transform="translate(700,1460)" d="m0 0h107l8 4 5 7 1 3v13l-3 6-8 6-4 1-76 1-1 70-3 6-8 6-3 1h-12l-8-5-3-3-3-12v-79l1-13 3-6z" fill="#F06521"/>
<path transform="translate(1448,1400)" d="m0 0 5 1 7 5 3 5v9l-6 8-8 7-22 22h-2l-1 3-8 7-3 1-1 6 5 6v2l3 1 18 22 12 13 12 14 8 10 2 5-1 9-5 6-4 2h-8l-7-4-9-11-12-14-11-14-12-13-11-14-12-15-3-6 1-5 4-6 14-15 21-21h2v-2l8-7 10-10z" fill="#F06521"/>
<path transform="translate(1214,1395)" d="m0 0h86l8 3 7 8 2 8-1 9-6 8-7 4-4 1-82 1v7l15 7 32 15 25 11 8 5 8 7 8 13 3 7 1 16-1 9-5 12-7 9-8 7-12 6-9 2-21 1h-33l-30-1-7-2-5-4-4-7-1-9 3-9 7-7 8-2 79-1 3-1 1-3v-7l-4-4-29-13-41-18-14-9-7-10-4-9-2-11 1-13 3-10 6-9 8-8 9-5 7-3zm4 6-14 4-9 6-5 5-6 8-3 9v16l5 12 8 10 9 6 14 6 41 18 18 8 5 6 1 9-4 8-7 3-79 1-6 3-6 7v7l3 6 4 4 3 1 13 1h62l12-1 12-5 12-11 5-8 3-9 1-5v-10l-4-13-6-9-7-7-17-9-12-5-15-7-26-12-9-5-4-5v-7l3-6 7-2h72l11-1 5-5 2-7-1-7-4-5-8-3z" fill="#090709"/>
<path transform="translate(718,1409)" d="m0 0h75l16 1 6 4 4 5 3 9-1 8-4 7-6 5-4 1h-104l-6-3-6-7-2-7 1-9 3-6 7-6 4-1z" fill="#F06521"/>
<path transform="translate(723,616)" d="m0 0h45l11 3 7 4 7 8 3 6 1 4v14l-3 9-9 10-10 5-12 2-15-1-5-4-2-4v-6l5-6 3-1 20-1 5-3 1-2v-10l-4-4-8-1h-29l-1 72-1 9-6 4h-7l-7-6v-93l3-5z" fill="#1C191C"/>
<path transform="translate(750,923)" d="m0 0 8 1 6 8 9 19 30 66 1 8-6 6-6 1-6-3-3-4-6-14-1-1-22-1-5-3-2-4v-8l4-4 4-2 9-1 2 1-9-20-4-7-3 4-11 24-15 33-4 6-5 4-7-1-5-5-1-2 1-9 18-38 11-24 12-25z" fill="#1C191C"/>
<path transform="translate(747,1079)" d="m0 0h37l5 3 2 5-1 7-7 6-33 1-10 3-10 9-4 7-1 4v16l4 10 6 7 8 5 8 2h9l11-3 9-7 7-8 8-1 6 4 2 4v6l-7 9-7 7-12 7-10 3h-23l-14-5-9-7-7-7-7-11-4-12v-21l3-10 6-11 9-10 11-7 9-4z" fill="#1C191C"/>
<path transform="translate(1345,1401)" d="m0 0h9l6 4 4 5v143l-3 6-5 4-2 1h-9l-5-3-3-6-1-5v-139l4-6z" fill="#F06521"/>
<path transform="translate(719,803)" d="m0 0h68l5 5v11l-5 4-6 1h-47l1 32 52 1 4 2 1 2v11l-6 5h-67l-4-2-1-3v-64z" fill="#1C191C"/>
<path transform="translate(871,1395)" d="m0 0h10l7 4 5 6 3 7 1 117 76 1 8 4 4 5 3 7v7l-4 9-4 5-5 2h-106l-7-3-6-8-1-6v-140l3-9 7-6zm1 6-8 5-3 5v142l3 6 5 4 4 1 18 1h75l8-2 5-6 1-3v-10l-6-7-2-1-83-1v-124l-3-5-5-4-2-1z" fill="#090609"/>
<path transform="translate(963,623)" d="m0 0h111l1 1v25l-1 1h-115l-1-2 4-24z" fill="#FEFEFE"/>
<path transform="translate(950,704)" d="m0 0h120l5 1v22l-1 1h-127l-1-1v-7z" fill="#FEFEFE"/>
<path transform="translate(956,665)" d="m0 0h117l2 2v21l-1 1h-121l-1-4 3-18z" fill="#FEFEFE"/>
<path transform="translate(784,1233)" d="m0 0 7 1 5 6v95l-4 4-3 1h-7l-6-5-1-4v-46h-22l-10-2-4-5v-8l4-6 3-1h29v-21l3-6z" fill="#1C191C"/>
<path transform="translate(700,1460)" d="m0 0h107l8 4 5 7 1 3v13l-3 6-8 6-4 1-76 1-1 70-3 6-8 6-3 1h-12l-8-5-3-3-3-12v-79l1-13 3-6zm13 5-11 2-5 4-1 2v95l3 6 5 4h10l4-2v-2h2l3-4 1-4v-72l68 1 14-1 5-3 4-6v-10l-4-6-7-3-36-1z" fill="#0B090B"/>
<path transform="translate(719,1233)" d="m0 0 6 1 4 4 1 2v93l-3 5-3 2-9-1-5-5v-94l3-5z" fill="#1C191C"/>
<path transform="translate(872,623)" d="m0 0h74l1 3-4 23-1 1h-71l-1-7 1-19z" fill="#FEFEFE"/>
<path transform="translate(980,559)" d="m0 0h30l100 6 14 1 1 3-1 11-1 1h-16l-94-5-4-2 4-1-9-1v-2l9-1h12l4-2 2-3h-3l-4 1-14-1h-14l-7-1h-12l-2-2z" fill="#050305"/>
<path transform="translate(718,1409)" d="m0 0h75l16 1 6 4 4 5 3 9-1 8-4 7-6 5-4 1h-104l-6-3-6-7-2-7 1-9 3-6 7-6 4-1zm-8 6-8 2-5 5-2 5 1 8 4 6 2 2 4 1h98l7-4 4-6v-10l-6-7-10-2z" fill="#0A080A"/>
<path transform="translate(872,665)" d="m0 0h67l1 3-3 18-2 3h-64l-1-5v-11l1-7z" fill="#FEFEFE"/>
<path transform="translate(735,770)" d="m0 0h29l23 1 5 5 1 7-2 5-6 3h-66l-6-7v-7l4-6z" fill="#1C191C"/>
<path transform="translate(1180,1187)" d="m0 0 2 3 2 34v12l-5 17-9 17-9 12-17 17-13 9-15 9-23 9-20 5-14 2h-40l-16-1-76-1 1-2h30l67-1 36-1 16-3 7-1 8-4 9-3 16-7 14-9 6-4 17-17 8-10 8-14 7-15 2-1-1-3 1-8v-30z" fill="#050305"/>
<path transform="translate(872,704)" d="m0 0h61l1 2-3 19-2 3h-57l-2-3v-17z" fill="#FEFEFE"/>
<path transform="translate(967,651)" d="m0 0h96v11l-2 2h-92l1-2h2v-3l2-2-4-2 3-2-6-1z" fill="#030103"/>
<path transform="translate(987,690)" d="m0 0h54v2h6v2h3l1 2 12 3 1 3 5 1v1h-108l2-2 3-2 4-2 10-2 7-5z" fill="#030103"/>
<path transform="translate(1032,1406)" d="m0 0 10 1 11 4 9 6 1 2h-10l-3 2 14 7 7 5v2h-18l-13-4-10-7-12-6-1-2-9-1 3-3 16-5z" fill="#FEFEFE"/>
<path transform="translate(1061,728)" d="m0 0h11l3 2-13 4-6-1v2l-13 2-7-1-1 2v-2l-18 1 3 2-22 1-13-1-2-1h-5l3-1v-2h-5l-4-2-19-2-3-2z" fill="#030103"/>
<path transform="translate(889,1412)" d="m0 0h1v123l7-1-2-4v-118h1l1 117 76 1 5 2v1h-66l54 1 5 1v1h-82l-1-3z" fill="#1D1A1D"/>
<path transform="translate(1025,607)" d="m0 0h25l39 1 1 4-1 1-11-1h-15l-27 1-18 1h-14l-25-2-3-3v-1z" fill="#040204"/>
<path transform="translate(1100,740)" d="m0 0 7 1 16 8 12 7 11 9 10 9 10 12 6 10-1 3-4-1 1-5-5-5-1 2-16-17-9-8-14-10-8-4v-2l-8-2-8-4z" fill="#060406"/>
<path transform="translate(858,608)" d="m0 0h76l-1 3-2 1-30 2-30-1-11 1h-3l-1-5z" fill="#030103"/>
<path transform="translate(1160,1257)" d="m0 0 1 3-3 9-8 10-6 6h-2l-1 4-5 3-4 4h-3l-1 2-5 2-5 3-5 2-3 2-10 2v-3l16-8 12-7 12-11 8-8 9-13z" fill="#060406"/>
<path transform="translate(892,651)" d="m0 0h33l-3 7v3l-4 2-5 1h-14l-3-9v-2z" fill="#030103"/>
<path transform="translate(1008,1444)" d="m0 0h5l-1 4-4 7-3 7-7 1h-10l2-6 5-7 8-5z" fill="#FCFCFC"/>
<path transform="translate(718,1409)" d="m0 0h75l16 1 4 3-6 2-2-2h-20l-81-2v-1z" fill="#1D1A1D"/>
<path transform="translate(980,559)" d="m0 0h30l30 2v1l-16 3-14-1h-14l-7-1h-12l-2-2z" fill="#090709"/>
<path transform="translate(1192,1530)" d="m0 0h79l-3 2-9 1h-32l-41-1v-1z" fill="#1D1A1D"/>
<path transform="translate(871,729)" d="m0 0h54l-4 3-15 1-8 2-5-1-20-2z" fill="#030103"/>
<path transform="translate(857,1327)" d="m0 0 9 2 40-1 9 1h11l-1 2-51 1-1 1h-17v-5z" fill="#030103"/>
<path transform="translate(1214,1395)" d="m0 0h86l6 2-3 1-14 1-18-1v-1h-38v1h-16z" fill="#1D1A1D"/>
<path transform="translate(790,1145)" d="m0 0 7 1 5 5 1 2v6l-4 6-4-2 1-4v-5l-4-2-4-1-4 1 1-4z" fill="#080608"/>
<path transform="translate(1370,1462)" d="m0 0 2 2 1 4 7-4-2 5 1 7 7 9v2l-4-2-5-5-2-4h-3l2 5-2-1-1 2h-2v-13z" fill="#1D1A1D"/>
<path transform="translate(707,1413)" d="m0 0h46l49 1 4 2h-102l3-1z" fill="#1D1A1D"/>
<path transform="translate(753,1412)" d="m0 0h52l3 2 1 2-7-1-49-1z" fill="#030103"/>
<path transform="translate(764,803)" d="m0 0h23l5 5v11l-2 2-3-1 1-13-24-3z" fill="#060406"/>
<path transform="translate(771,771)" d="m0 0h16l5 5 1 7-2 5-1 1h-5l2-1 1-13-4-1-13-2z" fill="#0A080A"/>
<path transform="translate(908,698)" d="m0 0 7 1 6 4-1 1h-26l4-3z" fill="#030103"/>
<path transform="translate(1103,653)" d="m0 0h6v12h-8l-1-2h2l-1-8z" fill="#030103"/>
<path transform="translate(1108,692)" d="m0 0h1v12l-6 1-7-1 4-2 4-9z" fill="#040204"/>
<path transform="translate(794,1329)" d="m0 0h1v7l-3 3-3 1h-7l-5-4 1-3 5 3 3-1v2l4-1z" fill="#090709"/>
<path transform="translate(1142,762)" d="m0 0 3 3v2l5 3 7 7 3 5h-3l-17-17z" fill="#1B181B"/>
<path transform="translate(1167,1236)" d="m0 0h3v7l-4 4 1 3-5 5-1-4z" fill="#0B090B"/>
<path transform="translate(719,1233)" d="m0 0 6 1 3 2v3l-6-1-10 2 3-6z" fill="#060406"/>
<path transform="translate(1288,1395)" d="m0 0h12l6 2-3 1-14 1-10-2v-1z" fill="#181518"/>
<path transform="translate(731,706)" d="m0 0h1v13l-6 4h-7l-1-2 9-2 3-9z" fill="#080608"/>
<path transform="translate(774,1080)" d="m0 0h13l3 4v4l-10-5v-2h-6z" fill="#050305"/>
<path transform="translate(788,859)" d="m0 0h3l1 2v11l-4-2z" fill="#060306"/>
<path transform="translate(1124,764)" d="m0 0 5 2 3 4 1 3-5-1-5-4z" fill="#080508"/>
<path transform="translate(785,1025)" d="m0 0 1 2 3-1 2 4 4-1 2-2 2 1-1 3-6 1-6-3z" fill="#0C090C"/>
<path transform="translate(857,710)" d="m0 0h1l1 17-2 2-1-1v-17z" fill="#030103"/>
<path transform="translate(958,576)" d="m0 0h2v4l-3 1-1 7-3 1 1-9z" fill="#080608"/>
<path transform="translate(1e3 572)" d="m0 0 20 1v1l-22 1 2-1z" fill="#1D1A1D"/>
<path transform="translate(781,1234)" d="m0 0 9 1-3 2-4 2-3-1z" fill="#070507"/>
<path transform="translate(750,923)" d="m0 0 8 1v2l-8 1-2-1v-2z" fill="#0B090B"/>
<path transform="translate(1173,801)" d="m0 0h2l4 9-1 4-3-7v-2h-2l-1-3z" fill="#0C090C"/>
<path transform="translate(1144,765)" d="m0 0 5 2 9 9h-3l-7-7-4-2z" fill="#0C0A0C"/>
<path transform="translate(1164,1246)" d="m0 0 3 3-3 4-3 2 1-6z" fill="#090609"/>
<path transform="translate(771,771)" d="m0 0h12l5 3-3 1-7-2-7-1z" fill="#030103"/>
</svg>
